# AST/ASF file generated using VICON BodyLanguage
# -----------------------------------------------
:version 1.10
:name VICON
:units
  mass 1.0
  length 0.45
  angle deg
:documentation
   .ast/.asf automatically generated from VICON data using
   VICON BodyBuilder and BodyLanguage model FoxedUp or BRILLIANT.MOD
:root
   order TX TY TZ RX RY RZ
   axis XYZ
   position 0 0 0  
   orientation 0 0 0 
:bonedata
  begin
     id 1 
     name lhipjoint
     direction 0.62366 -0.717238 0.310833 
     length 2.53602 
     axis 0 0 0  XYZ
  end
  begin
     id 2 
     name lfemur
     direction 0.34202 -0.939693 0  
     length 7.40817  
     axis 0 0 20  XYZ
    dof rx ry rz
    limits (-160.0 20.0)
           (-70.0 70.0)
           (-60.0 70.0)
  end
  begin
     id 3 
     name ltibia
     direction 0.34202 -0.939693 0   
     length 7.7045   
     axis 0 0 20   XYZ
    dof rx
    limits (-10.0 170.0)
  end
  begin
     id 4 
     name lfoot
     direction 0.0673888 -0.185149 0.980397   
     length 2.09456   
     axis -90 7.62852e-016 20   XYZ
    dof rx rz
    limits (-45.0 90.0)
           (-70.0 20.0)
  end
  begin
     id 5 
     name ltoes
     direction 1.53575e-011 -4.21994e-011 1   
     length 1.05543   
     axis -90 7.62852e-016 20   XYZ
    dof rx
    limits (-90.0 20.0)
  end
  begin
     id 6 
     name rhipjoint
     direction -0.489018 -0.800347 0.346851   
     length 2.27268  
     axis 0 0 0  XYZ 
  end
  begin
     id 7 
     name rfemur
     direction -0.34202 -0.939693 0   
     length 7.55487   
     axis 0 0 -20   XYZ
    dof rx ry rz
    limits (-160.0 20.0)
           (-70.0 70.0)
           (-70.0 60.0)
  end
  begin
     id 8 
     name rtibia
     direction -0.34202 -0.939693 0   
     length 7.78969   
     axis 0 0 -20   XYZ
    dof rx
    limits (-10.0 170.0)
 end
 begin
     id 9 
     name rfoot
     direction -0.0859318 -0.236096 0.967923   
     length 2.19143  
     axis -90 -7.62852e-016 -20   XYZ
    dof rx rz
    limits (-45.0 90.0)
           (-20.0 70.0)
  end
  begin
     id 10 
     name rtoes
     direction -1.53538e-011 -4.21989e-011 1   
     length 1.09845   
     axis -90 -7.62852e-016 -20   XYZ
    dof rx
    limits (-90.0 20.0)
  end
  begin
     id 11 
     name lowerback
     direction -0.00762546 0.998978 -0.0445553   
     length 1.98161   
     axis 0 0 0   XYZ
    dof rx ry rz
    limits (-20.0 45.0)
           (-30.0 30.0)
           (-30.0 30.0)
  end
  begin
     id 12 
     name upperback
     direction 0.0422361 0.998867 -0.0219156   
     length 1.97558   
     axis 0 0 0   XYZ
    dof rx ry rz
    limits (-20.0 45.0)
           (-30.0 30.0)
           (-30.0 30.0)
  end
  begin
     id 13 
     name thorax
     direction 0.0442465 0.999021 7.47603e-005   
     length 1.97799   
     axis 0 0 0   XYZ
    dof rx ry rz
    limits (-20.0 45.0)
           (-30.0 30.0)
           (-30.0 30.0)
  end
  begin
     id 14 
     name lowerneck
     direction 0.00312169 0.984641 0.174564   
     length 1.78995   
     axis 0 0 0   XYZ
    dof rx ry rz
    limits (-20.0 45.0)
           (-30.0 30.0)
           (-30.0 30.0)
  end
  begin
     id 15 
     name upperneck
     direction -0.0383028 0.985255 -0.166749   
     length 1.83053   
     axis 0 0 0   XYZ
    dof rx ry rz
    limits (-20.0 45.0)
           (-30.0 30.0)
           (-30.0 30.0)
  end
  begin
     id 16
     name head
     direction -0.0129546 0.997059 -0.0755386  
     length 1.84088  
     axis 0 0 0   XYZ
    dof rx ry rz
    limits (-20.0 45.0)
           (-30.0 30.0)
           (-30.0 30.0)
  end
  begin
     id 17 
     name lclavicle
     direction 0.912857 0.370519 -0.171488  
     length 3.51279  
     axis 0 0 0   XYZ
    dof ry rz
    limits (-20.0 10.0)
           (0.0 20.0)
  end
  begin
     id 18 
     name lhumerus
     direction 1 -4.48962e-011 3.64361e-027   
     length 4.95663   
     axis 180 -30 -90   XYZ
    dof rx ry rz
    limits (-60.0 90.0)
           (-90.0 90.0)
           (-90.0 90.0)
  end
  begin
     id 19
     name lradius
     direction 1 -4.48974e-011 5.97202e-027   
     length 3.38177   
     axis 180 -30 -90   XYZ
    dof rx
    limits (-10.0 170.0)
  end
  begin
     id 20
     name lwrist
     direction 1 -4.4896e-011 9.83288e-027   
     length 1.69088   
     axis -9.31221e-015 90 90   XYZ
    dof ry
    limits (-180.0 0.0)
 end
  begin
     id 21 
     name lhand
     direction 1 -4.4902e-011 1.96551e-026   
     length 0.662909   
     axis -1.25475e-014 90 90   XYZ
    dof rx rz
    limits (-90.0 90.0)
           (-45.0 45.0)
  end
  begin
     id 22 
     name lfingers
     direction 1 -4.48971e-011 3.93277e-026   
     length 0.534454   
     axis -2.50945e-014 90 90   XYZ
    dof rx
    limits (0.0 90.0)
  end
  begin
     id 23
     name lthumb
     direction 0.707107 -6.34933e-011 0.707107   
     length 0.767373   
     axis -90 45 -4.80359e-014   XYZ
    dof rx rz
    limits (-45.0 45.0)
           (-45.0 45.0)
  end
  begin
     id 24 
     name rclavicle
     direction -0.900919 0.395364 -0.178976   
     length 3.40627  
     axis 0 0 0   XYZ 
    dof ry rz
    limits (-10.0 20.0)
           (-20.0 0.0)
  end
  begin
     id 25 
     name rhumerus
     direction -1 -4.48969e-011 1.03875e-027  
     length 5.08365   
     axis 180 30 90   XYZ
    dof rx ry rz
    limits (-90.0 60.0)
           (-90.0 90.0)
           (-90.0 90.0)
  end
  begin
     id 26 
     name rradius
     direction -1 -4.48951e-011 5.02733e-027   
     length 3.35984   
     axis 180 30 90   XYZ
    dof rx
    limits (-10.0 170.0)
  end
  begin
     id 27 
     name rwrist
     direction -1 -4.49011e-011 9.82828e-027   
     length 1.67992   
     axis -9.31221e-015 -90 -90   XYZ
    dof ry
    limits (-180.0 0.0)
  end
  begin
     id 28
     name rhand
     direction -1 -4.48894e-011 1.96774e-026   
     length 0.820764   
     axis -1.25475e-014 -90 -90   XYZ
    dof rx rz
    limits (-90.0 90.0)
           (-45.0 45.0)
  end
  begin
     id 29
     name rfingers
     direction -1 -4.49095e-011 3.92833e-026   
     length 0.661721   
     axis -2.50945e-014 -90 -90   XYZ
    dof rx
    limits (0.0 90.0)
  end
  begin
     id 30
     name rthumb
     direction -0.707107 -6.34881e-011 0.707107   
     length 0.950103   
     axis -90 -45 4.80359e-014   XYZ
    dof rx rz
    limits (-45.0 45.0)
           (-45.0 45.0)
  end
:hierarchy
  begin
    root lhipjoint rhipjoint lowerback
    lhipjoint lfemur
    lfemur ltibia
    ltibia lfoot
    lfoot ltoes
    rhipjoint rfemur
    rfemur rtibia
    rtibia rfoot
    rfoot rtoes
    lowerback upperback
    upperback thorax
    thorax lowerneck lclavicle rclavicle
    lowerneck upperneck
    upperneck head
    lclavicle lhumerus
    lhumerus lradius
    lradius lwrist
    lwrist lhand lthumb
    lhand lfingers
    rclavicle rhumerus
    rhumerus rradius
    rradius rwrist
    rwrist rhand rthumb
    rhand rfingers
  end

#!OML:ASF I:\golf\golf\golf 2\Subject 1\2002-09-07\Subject1.ASF
:FULLY-SPECIFIED
:DEGREES
16
root -6.5325 17.7707 0.213133 -50.4798 85.8241 -67.9034
lowerback 2.8432 1.88895 -1.76899
upperback 3.41902 2.5497 4.05915
thorax 1.66594 1.23567 5.15096
lowerneck -16.145 -1.28398 2.029
upperneck 39.3033 0.764619 -3.9603
head 17.0378 0.586334 -1.84535
rclavicle -7.15625e-015 -3.4191e-014
rhumerus -4.50674 0.475719 -101.592
rradius 19.3535
rwrist -27.6315
rhand -15.0358 -6.40361
rfingers 7.12502
rthumb 11.1302 -36.0884
lclavicle -7.15625e-015 -3.4191e-014
lhumerus -11.4199 -44.1595 111.822
lradius 25.5364
lwrist 41.9526
lhand -13.7702 64.625
lfingers 7.12502
lthumb -167.649 85.7598
rfemur -31.6924 -2.28916 12.9234
rtibia 29.3267
rfoot -8.14745 -11.2164
rtoes -7.35652
lfemur -30.8189 9.89219 -9.8518
ltibia 31.8728
lfoot -12.2549 1.21229
ltoes -23.3732
17
root -6.53132 17.7704 0.212327 -50.6384 85.8343 -68.0655
lowerback 2.83853 1.88598 -1.73727
upperback 3.4232 2.54618 4.05318
thorax 1.67473 1.23442 5.12706
lowerneck -16.1551 -1.27847 2.00937
upperneck 39.3261 0.768692 -3.92498
head 17.053 0.590629 -1.82563
rclavicle 3.18055e-015 -3.26007e-014
rhumerus -4.51202 0.365362 -101.631
rradius 19.3727
rwrist -27.727
rhand -15.1034 -6.25578
rfingers 7.12502
rthumb 11.065 -35.9441
lclavicle 3.18055e-015 -3.26007e-014
lhumerus -11.3961 -44.3209 111.797
lradius 25.4997
lwrist 42.0329
lhand -13.814 64.8183
lfingers 7.12502
lthumb -167.692 85.5639
rfemur -31.6899 -2.32883 12.923
rtibia 29.3221
rfoot -8.25193 -11.1737
rtoes -6.53937
lfemur -30.8123 9.91927 -9.85989
ltibia 31.8439
lfoot -12.2466 1.11112
ltoes -22.931
18
root -6.53083 17.7706 0.210396 -51.0843 85.8611 -68.5292
lowerback 2.83348 1.88666 -1.67907
upperback 3.41259 2.54783 4.03651
thorax 1.66938 1.23672 5.07636
lowerneck -16.1676 -1.26894 2.02705
upperneck 39.3531 0.777451 -3.9149
head 17.0714 0.599427 -1.82319
rclavicle -1.70955e-014 -6.59965e-014
rhumerus -4.58912 0.345218 -101.639
rradius 19.4812
rwrist -27.8549
rhand -15.1892 -6.18534
rfingers 7.12502
rthumb 10.9822 -35.8781
lclavicle -1.70955e-014 -6.59965e-014
lhumerus -11.4416 -44.5445 111.791
lradius 25.5376
lwrist 42.1651
lhand -13.7582 64.81
lfingers 7.12502
lthumb -167.638 85.5755
rfemur -31.6976 -2.31924 12.9
rtibia 29.3272
rfoot -8.24042 -11.2381
rtoes -6.8123
lfemur -30.8392 9.87413 -9.86429
ltibia 31.8181
lfoot -12.1993 1.05621
ltoes -22.9272
19
root -6.52989 17.7709 0.208067 -51.4376 85.8565 -68.8908
lowerback 2.83137 1.88804 -1.61279
upperback 3.40113 2.55074 4.02986
thorax 1.6613 1.23987 5.03142
lowerneck -16.1592 -1.25331 2.01351
upperneck 39.3816 0.798686 -3.8813
head 17.0859 0.612291 -1.8019
rclavicle 2.70347e-014 5.64548e-014
rhumerus -4.69372 0.315684 -101.653
rradius 19.5866
rwrist -27.8972
rhand -15.3141 -6.10952
rfingers 7.12502
rthumb 10.8618 -35.8086
lclavicle 2.70347e-014 5.64548e-014
lhumerus -11.4811 -44.7096 111.791
lradius 25.5639
lwrist 42.3039
lhand -13.8659 64.9458
lfingers 7.12502
lthumb -167.742 85.4335
rfemur -31.6991 -2.32277 12.915
rtibia 29.3364
rfoot -8.08606 -11.2539
rtoes -7.8183
lfemur -30.8404 9.84193 -9.84864
ltibia 31.7925
lfoot -12.1714 1.05895
ltoes -23.0311
20
root -6.52886 17.7706 0.207065 -51.6294 85.8299 -69.0757
lowerback 2.82745 1.87477 -1.59224
upperback 3.40961 2.53387 4.05928
thorax 1.67355 1.23162 5.05133
lowerneck -16.1761 -1.2347 1.99491
upperneck 39.4129 0.848837 -3.90665
head 17.1104 0.627252 -1.80148
rclavicle 7.55382e-015 3.33958e-014
rhumerus -4.7281 0.218716 -101.687
rradius 19.6032
rwrist -27.8458
rhand -15.476 -6.02766
rfingers 7.12502
rthumb 10.7056 -35.7349
lclavicle 7.55382e-015 3.33958e-014
lhumerus -11.4156 -44.711 111.758
lradius 25.512
lwrist 42.3147
lhand -14.038 65.1385
lfingers 7.12502
lthumb -167.908 85.2309
rfemur -31.6973 -2.35105 12.9592
rtibia 29.3541
rfoot -8.04831 -11.2261
rtoes -8.08921
lfemur -30.8155 9.91546 -9.83866
ltibia 31.7622
lfoot -12.1736 1.02044
ltoes -23.2507
21
root -6.52781 17.7694 0.208109 -51.3822 85.8583 -68.8229
lowerback 2.81798 1.88889 -1.63056
upperback 3.41971 2.55198 4.05926
thorax 1.68599 1.23954 5.07337
lowerneck -16.2301 -1.24784 2.03971
upperneck 39.4647 0.85817 -4.00053
head 17.154 0.626288 -1.85193
rclavicle 2.38542e-015 -7.95139e-016
rhumerus -4.71974 0.0367274 -101.714
rradius 19.6115
rwrist -27.853
rhand -15.5951 -5.99926
rfingers 7.12502
rthumb 10.5908 -35.7124
lclavicle 2.38542e-015 -7.95139e-016
lhumerus -11.417 -44.8529 111.735
lradius 25.5307
lwrist 42.3399
lhand -13.944 65.0911
lfingers 7.12502
lthumb -167.817 85.2837
rfemur -31.6942 -2.27361 12.9026
rtibia 29.3765
rfoot -8.13699 -11.3322
rtoes -7.87775
lfemur -30.799 9.98067 -9.88925
ltibia 31.7376
lfoot -12.1846 0.968928
ltoes -23.4053
22
root -6.52681 17.7671 0.208082 -50.9904 85.9515 -68.4425
lowerback 2.80619 1.9145 -1.6877
upperback 3.41507 2.58444 4.02133
thorax 1.68385 1.25455 5.06571
lowerneck -16.2676 -1.26797 2.07859
upperneck 39.488 0.833341 -4.04096
head 17.1753 0.617401 -1.88267
rclavicle -1.59028e-015 2.38542e-015
rhumerus -4.70495 -0.231912 -101.731
rradius 19.6287
rwrist -27.7849
rhand -15.7033 -6.01981
rfingers 7.12502
rthumb 10.4864 -35.7383
lclavicle -1.59028e-015 2.38542e-015
lhumerus -11.4611 -44.9659 111.747
lradius 25.5706
lwrist 42.3619
lhand -13.9702 65.2631
lfingers 7.12502
lthumb -167.842 85.1102
rfemur -31.6999 -2.19575 12.7579
rtibia 29.3934
rfoot -8.20113 -11.4188
rtoes -7.72988
lfemur -30.8073 9.96443 -10.0044
ltibia 31.7181
lfoot -12.1841 0.980672
ltoes -23.5998
23
root -6.52647 17.7656 0.205029 -51.4833 86.0165 -68.9509
lowerback 2.81767 1.90365 -1.65762
upperback 3.40197 2.57026 4.00188
thorax 1.66728 1.24852 5.02773
lowerneck -16.275 -1.25637 2.08907
upperneck 39.4944 0.84253 -4.02635
head 17.1811 0.625101 -1.87635
rclavicle -2.26615e-014 4.77083e-015
rhumerus -4.69755 -0.3821 -101.743
rradius 19.6265
rwrist -27.7023
rhand -15.7581 -6.01114
rfingers 7.12502
rthumb 10.4335 -35.7323
lclavicle -2.26615e-014 4.77083e-015
lhumerus -11.4474 -44.8327 111.754
lradius 25.5182
lwrist 42.2114
lhand -14.1681 65.6681
lfingers 7.12502
lthumb -168.033 84.6939
rfemur -31.7005 -2.29609 12.7111
rtibia 29.3868
rfoot -8.1909 -11.3408
rtoes -8.00261
lfemur -30.8413 9.94582 -10.0789
ltibia 31.7127
lfoot -12.1798 0.981277
ltoes -24.0067
24
root -6.5256 17.7664 0.201986 -52.4628 86.0527 -69.8978
lowerback 2.87722 1.89228 -1.57821
upperback 3.39128 2.55665 3.98066
thorax 1.62823 1.24438 4.95809
lowerneck -16.2662 -1.25816 2.13617
upperneck 39.5416 0.823445 -4.00703
head 17.2037 0.629512 -1.88036
rclavicle -1.27222e-014 -3.18055e-015
rhumerus -4.72456 -0.390666 -101.753
rradius 19.6459
rwrist -27.7798
rhand -15.6451 -5.96296
rfingers 7.12502
rthumb 10.5425 -35.6786
lclavicle -1.27222e-014 -3.18055e-015
lhumerus -11.4702 -44.7228 111.747
lradius 25.4643
lwrist 41.9508
lhand -14.1476 65.9006
lfingers 7.12502
lthumb -168.013 84.4627
rfemur -31.6334 -2.42392 12.7265
rtibia 29.364
rfoot -8.14256 -11.2948
rtoes -8.59219
lfemur -30.8305 9.888 -10.084
ltibia 31.7219
lfoot -12.1757 0.970015
ltoes -23.9599
25
root -6.52372 17.7702 0.199481 -53.7541 86.1011 -71.1646
lowerback 2.89259 1.86957 -1.50019
upperback 3.39036 2.52756 3.95522
thorax 1.62561 1.23163 4.88724
lowerneck -16.2449 -1.27221 2.1856
upperneck 39.5556 0.786347 -4.00352
head 17.2037 0.623593 -1.89457
rclavicle -3.61788e-014 -1.51076e-014
rhumerus -4.73502 -0.515123 -101.792
rradius 19.6451
rwrist -27.737
rhand -15.4258 -5.93529
rfingers 7.12502
rthumb 10.754 -35.64
lclavicle -3.61788e-014 -1.51076e-014
lhumerus -11.4775 -44.6571 111.708
lradius 25.4453
lwrist 41.7271
lhand -14.1196 66.0761
lfingers 7.12502
lthumb -167.986 84.2888
rfemur -31.5622 -2.48847 12.7256
rtibia 29.3513
rfoot -8.14952 -11.3524
rtoes -8.5979
lfemur -30.7627 9.68718 -10.0178
ltibia 31.7145
lfoot -12.1946 0.883195
ltoes -22.7365
